<svg width="60" height="58" viewBox="0 0 60 58" fill="none" xmlns="http://www.w3.org/2000/svg" xmlns:xlink="http://www.w3.org/1999/xlink">
<path d="M45.917,21.333L45.917,17.333L45.917,21.333ZM45.917,40.667L45.917,44.667L45.917,40.667ZM43.5,36.667C41.291,36.667 39.5,38.458 39.5,40.667C39.5,42.876 41.291,44.667 43.5,44.667L43.5,36.667ZM4.833,21.333L4.833,17.333C2.624,17.333 0.833,19.124 0.833,21.333L4.833,21.333ZM4.833,43.083L0.833,43.083L4.833,43.083ZM18.5,4.417C18.5,2.208 16.709,0.417 14.5,0.417C12.291,0.417 10.5,2.208 10.5,4.417L18.5,4.417ZM10.5,11.667C10.5,13.876 12.291,15.667 14.5,15.667C16.709,15.667 18.5,13.876 18.5,11.667L10.5,11.667ZM28.167,4.417C28.167,2.208 26.376,0.417 24.167,0.417C21.958,0.417 20.167,2.208 20.167,4.417L28.167,4.417ZM20.167,11.667C20.167,13.876 21.958,15.667 24.167,15.667C26.376,15.667 28.167,13.876 28.167,11.667L20.167,11.667ZM37.833,4.417C37.833,2.208 36.043,0.417 33.833,0.417C31.624,0.417 29.833,2.208 29.833,4.417L37.833,4.417ZM29.833,11.667C29.833,13.876 31.624,15.667 33.833,15.667C36.043,15.667 37.833,13.876 37.833,11.667L29.833,11.667ZM43.5,25.333L45.917,25.333L45.917,17.333L43.5,17.333L43.5,25.333ZM45.917,25.333C47.42,25.333 48.861,25.93 49.924,26.993L55.581,21.336C53.018,18.773 49.541,17.333 45.917,17.333L45.917,25.333ZM49.924,26.993C50.986,28.056 51.583,29.497 51.583,31L59.583,31C59.583,27.376 58.144,23.899 55.581,21.336L49.924,26.993ZM51.583,31C51.583,32.503 50.986,33.944 49.924,35.007L55.581,40.664C58.144,38.101 59.583,34.625 59.583,31L51.583,31ZM49.924,35.007C48.861,36.07 47.42,36.667 45.917,36.667L45.917,44.667C49.541,44.667 53.018,43.227 55.581,40.664L49.924,35.007ZM45.917,36.667L43.5,36.667L43.5,44.667L45.917,44.667L45.917,36.667ZM4.833,25.333L43.5,25.333L43.5,17.333L4.833,17.333L4.833,25.333ZM39.5,21.333L39.5,43.083L47.5,43.083L47.5,21.333L39.5,21.333ZM39.5,43.083C39.5,44.586 38.903,46.028 37.84,47.09L43.497,52.747C46.06,50.184 47.5,46.708 47.5,43.083L39.5,43.083ZM37.84,47.09C36.778,48.153 35.336,48.75 33.833,48.75L33.833,56.75C37.458,56.75 40.934,55.31 43.497,52.747L37.84,47.09ZM33.833,48.75L14.5,48.75L14.5,56.75L33.833,56.75L33.833,48.75ZM14.5,48.75C12.997,48.75 11.556,48.153 10.493,47.09L4.836,52.747C7.399,55.31 10.875,56.75 14.5,56.75L14.5,48.75ZM10.493,47.09C9.43,46.028 8.833,44.586 8.833,43.083L0.833,43.083C0.833,46.708 2.273,50.184 4.836,52.747L10.493,47.09ZM8.833,43.083L8.833,21.333L0.833,21.333L0.833,43.083L8.833,43.083ZM10.5,4.417L10.5,11.667L18.5,11.667L18.5,4.417L10.5,4.417ZM20.167,4.417L20.167,11.667L28.167,11.667L28.167,4.417L20.167,4.417ZM29.833,4.417L29.833,11.667L37.833,11.667L37.833,4.417L29.833,4.417Z" fill="#1E1E1E"/>
</svg>
