<svg width="62" height="60" viewBox="0 0 62 60" fill="none" xmlns="http://www.w3.org/2000/svg" xmlns:xlink="http://www.w3.org/1999/xlink">
<path d="M36.425,15.325L33.597,12.497C33.587,12.506 33.578,12.515 33.568,12.525L36.425,15.325ZM36.425,19.175L33.568,21.975C33.578,21.985 33.587,21.994 33.597,22.003L36.425,19.175ZM40.825,23.575L37.997,26.403C38.006,26.413 38.016,26.422 38.025,26.432L40.825,23.575ZM44.675,23.575L47.475,26.432C47.485,26.422 47.494,26.413 47.503,26.403L44.675,23.575ZM55.043,13.208L58.687,11.558C58.145,10.362 57.051,9.508 55.76,9.272C54.468,9.037 53.143,9.451 52.214,10.379L55.043,13.208ZM33.208,35.043L34.857,31.398C33.34,30.712 31.556,31.037 30.379,32.214L33.208,35.043ZM14.205,54.045L11.377,51.217L11.377,51.217L14.205,54.045ZM10.08,55.754L10.08,59.754L10.08,55.754ZM4.246,49.92L0.246,49.92L4.246,49.92ZM5.955,45.795L3.127,42.967L3.127,42.967L5.955,45.795ZM24.958,26.793L27.786,29.621C28.963,28.444 29.288,26.66 28.602,25.143L24.958,26.793ZM46.793,4.958L49.621,7.786C50.549,6.857 50.963,5.532 50.728,4.241C50.492,2.949 49.638,1.855 48.442,1.313L46.793,4.958ZM33.568,12.525C32.332,13.787 31.639,15.483 31.639,17.25L39.639,17.25C39.639,17.577 39.511,17.891 39.282,18.125L33.568,12.525ZM31.639,17.25C31.639,19.017 32.332,20.713 33.568,21.975L39.282,16.375C39.511,16.609 39.639,16.923 39.639,17.25L31.639,17.25ZM33.597,22.003L37.997,26.403L43.653,20.747L39.253,16.347L33.597,22.003ZM38.025,26.432C39.287,27.668 40.983,28.361 42.75,28.361L42.75,20.361C43.077,20.361 43.391,20.489 43.625,20.718L38.025,26.432ZM42.75,28.361C44.517,28.361 46.213,27.668 47.475,26.432L41.875,20.718C42.109,20.489 42.423,20.361 42.75,20.361L42.75,28.361ZM47.503,26.403L57.871,16.036L52.214,10.379L41.847,20.747L47.503,26.403ZM51.398,14.857C52.446,17.172 52.763,19.751 52.308,22.251L60.178,23.685C60.925,19.585 60.405,15.355 58.687,11.558L51.398,14.857ZM52.308,22.251C51.852,24.75 50.646,27.052 48.849,28.849L54.506,34.506C57.452,31.559 59.431,27.784 60.178,23.685L52.308,22.251ZM48.849,28.849C47.052,30.646 44.75,31.852 42.251,32.308L43.685,40.178C47.784,39.431 51.559,37.452 54.506,34.506L48.849,28.849ZM42.251,32.308C39.751,32.763 37.172,32.446 34.857,31.398L31.558,38.687C35.355,40.405 39.585,40.925 43.685,40.178L42.251,32.308ZM30.379,32.214L11.377,51.217L17.033,56.873L36.036,37.871L30.379,32.214ZM11.377,51.217C11.033,51.56 10.566,51.754 10.08,51.754L10.08,59.754C12.688,59.754 15.189,58.718 17.033,56.873L11.377,51.217ZM10.08,51.754C9.594,51.754 9.127,51.56 8.783,51.217L3.127,56.873C4.971,58.718 7.472,59.754 10.08,59.754L10.08,51.754ZM8.783,51.217C8.44,50.873 8.246,50.406 8.246,49.92L0.246,49.92C0.246,52.528 1.282,55.029 3.127,56.873L8.783,51.217ZM8.246,49.92C8.246,49.434 8.44,48.967 8.783,48.623L3.127,42.967C1.282,44.811 0.246,47.312 0.246,49.92L8.246,49.92ZM8.783,48.623L27.786,29.621L22.129,23.964L3.127,42.967L8.783,48.623ZM28.602,25.143C27.554,22.828 27.237,20.249 27.692,17.749L19.822,16.315C19.075,20.415 19.595,24.645 21.313,28.442L28.602,25.143ZM27.692,17.749C28.148,15.25 29.354,12.948 31.151,11.151L25.494,5.494C22.548,8.441 20.569,12.216 19.822,16.315L27.692,17.749ZM31.151,11.151C32.948,9.354 35.25,8.148 37.749,7.692L36.315,-0.178C32.216,0.569 28.441,2.548 25.494,5.494L31.151,11.151ZM37.749,7.692C40.249,7.237 42.828,7.554 45.143,8.602L48.442,1.313C44.645,-0.405 40.415,-0.925 36.315,-0.178L37.749,7.692ZM43.964,2.129L33.597,12.497L39.253,18.153L49.621,7.786L43.964,2.129Z" fill="#1E1E1E"/>
</svg>
