<svg width="66" height="70" viewBox="0 0 66 70" fill="none" xmlns="http://www.w3.org/2000/svg" xmlns:xlink="http://www.w3.org/1999/xlink">
<path d="M3.5,25.75L1.085,22.561C0.087,23.317 -0.5,24.498 -0.5,25.75L3.5,25.75ZM32,4.167L34.415,0.978C32.987,-0.104 31.013,-0.104 29.585,0.978L32,4.167ZM60.5,25.75L64.5,25.75C64.5,24.498 63.913,23.317 62.915,22.561L60.5,25.75ZM3.5,59.667L-0.5,59.667L3.5,59.667ZM18.5,65.833C18.5,68.043 20.291,69.833 22.5,69.833C24.709,69.833 26.5,68.043 26.5,65.833L18.5,65.833ZM22.5,35L22.5,31C20.291,31 18.5,32.791 18.5,35L22.5,35ZM41.5,35L45.5,35C45.5,32.791 43.709,31 41.5,31L41.5,35ZM37.5,65.833C37.5,68.043 39.291,69.833 41.5,69.833C43.709,69.833 45.5,68.043 45.5,65.833L37.5,65.833ZM5.915,28.939L34.415,7.356L29.585,0.978L1.085,22.561L5.915,28.939ZM29.585,7.356L58.085,28.939L62.915,22.561L34.415,0.978L29.585,7.356ZM56.5,25.75L56.5,59.667L64.5,59.667L64.5,25.75L56.5,25.75ZM56.5,59.667C56.5,60.206 56.281,60.746 55.855,61.161L61.435,66.893C63.385,64.995 64.5,62.398 64.5,59.667L56.5,59.667ZM55.855,61.161C55.425,61.58 54.819,61.833 54.167,61.833L54.167,69.833C56.873,69.833 59.49,68.788 61.435,66.893L55.855,61.161ZM54.167,61.833L9.833,61.833L9.833,69.833L54.167,69.833L54.167,61.833ZM9.833,61.833C9.181,61.833 8.575,61.58 8.145,61.161L2.565,66.893C4.51,68.788 7.127,69.833 9.833,69.833L9.833,61.833ZM8.145,61.161C7.719,60.746 7.5,60.206 7.5,59.667L-0.5,59.667C-0.5,62.398 0.615,64.995 2.565,66.893L8.145,61.161ZM7.5,59.667L7.5,25.75L-0.5,25.75L-0.5,59.667L7.5,59.667ZM26.5,65.833L26.5,35L18.5,35L18.5,65.833L26.5,65.833ZM22.5,39L41.5,39L41.5,31L22.5,31L22.5,39ZM37.5,35L37.5,65.833L45.5,65.833L45.5,35L37.5,35Z" fill="#32ADE6"/>
</svg>
