<svg width="38" height="64" viewBox="0 0 38 64" fill="none" xmlns="http://www.w3.org/2000/svg" xmlns:xlink="http://www.w3.org/1999/xlink">
<path d="M23,4.5C23,2.291 21.209,0.5 19,0.5C16.791,0.5 15,2.291 15,4.5L23,4.5ZM15,59.5C15,61.709 16.791,63.5 19,63.5C21.209,63.5 23,61.709 23,59.5L15,59.5ZM31.083,18.5C33.292,18.5 35.083,16.709 35.083,14.5C35.083,12.291 33.292,10.5 31.083,10.5L31.083,18.5ZM4.5,23.25L0.5,23.25L4.5,23.25ZM12.958,32L12.958,36L12.958,32ZM25.042,32L25.042,28L25.042,28L25.042,32ZM25.042,49.5L25.042,53.5L25.042,53.5L25.042,49.5ZM4.5,45.5C2.291,45.5 0.5,47.291 0.5,49.5C0.5,51.709 2.291,53.5 4.5,53.5L4.5,45.5ZM15,4.5L15,59.5L23,59.5L23,4.5L15,4.5ZM31.083,10.5L12.958,10.5L12.958,18.5L31.083,18.5L31.083,10.5ZM12.958,10.5C9.61,10.5 6.427,11.877 4.101,14.283L9.853,19.843C10.701,18.966 11.821,18.5 12.958,18.5L12.958,10.5ZM4.101,14.283C1.781,16.683 0.5,19.911 0.5,23.25L8.5,23.25C8.5,21.947 9.002,20.724 9.853,19.843L4.101,14.283ZM0.5,23.25C0.5,26.589 1.781,29.817 4.101,32.217L9.853,26.657C9.002,25.776 8.5,24.553 8.5,23.25L0.5,23.25ZM4.101,32.217C6.427,34.623 9.61,36 12.958,36L12.958,28C11.821,28 10.701,27.534 9.853,26.657L4.101,32.217ZM12.958,36L25.042,36L25.042,28L12.958,28L12.958,36ZM25.042,36C26.179,36 27.299,36.466 28.147,37.343L33.899,31.783C31.573,29.377 28.39,28 25.042,28L25.042,36ZM28.147,37.343C28.998,38.224 29.5,39.447 29.5,40.75L37.5,40.75C37.5,37.411 36.219,34.183 33.899,31.783L28.147,37.343ZM29.5,40.75C29.5,42.053 28.998,43.276 28.147,44.157L33.899,49.717C36.219,47.317 37.5,44.089 37.5,40.75L29.5,40.75ZM28.147,44.157C27.299,45.034 26.179,45.5 25.042,45.5L25.042,53.5C28.39,53.5 31.573,52.123 33.899,49.717L28.147,44.157ZM25.042,45.5L4.5,45.5L4.5,53.5L25.042,53.5L25.042,45.5Z" fill="#1E1E1E"/>
</svg>
