<svg width="64" height="62" viewBox="0 0 64 62" fill="none" xmlns="http://www.w3.org/2000/svg" xmlns:xlink="http://www.w3.org/1999/xlink">
<path d="M4.5,0.5C2.291,0.5 0.5,2.291 0.5,4.5C0.5,6.709 2.291,8.5 4.5,8.5L4.5,0.5ZM14.5,4.5L18.422,3.715C18.048,1.846 16.407,0.5 14.5,0.5L14.5,4.5ZM21.2,37.975L25.123,37.196L25.122,37.19L21.2,37.975ZM26.2,42L26.2,38C26.174,38 26.149,38 26.123,38.001L26.2,42ZM50.5,42L50.577,38.001C50.551,38 50.526,38 50.5,38L50.5,42ZM55.5,37.975L59.423,38.754C59.425,38.744 59.427,38.734 59.429,38.724L55.5,37.975ZM59.5,17L63.429,17.749C63.653,16.578 63.342,15.369 62.582,14.45C61.822,13.532 60.692,13 59.5,13L59.5,17ZM17,13C14.791,13 13,14.791 13,17C13,19.209 14.791,21 17,21L17,13ZM23,54.5C23,53.672 23.672,53 24.5,53L24.5,61C28.09,61 31,58.09 31,54.5L23,54.5ZM24.5,53C25.328,53 26,53.672 26,54.5L18,54.5C18,58.09 20.91,61 24.5,61L24.5,53ZM26,54.5C26,55.328 25.328,56 24.5,56L24.5,48C20.91,48 18,50.91 18,54.5L26,54.5ZM24.5,56C23.672,56 23,55.328 23,54.5L31,54.5C31,50.91 28.09,48 24.5,48L24.5,56ZM50.5,54.5C50.5,53.672 51.172,53 52,53L52,61C55.59,61 58.5,58.09 58.5,54.5L50.5,54.5ZM52,53C52.828,53 53.5,53.672 53.5,54.5L45.5,54.5C45.5,58.09 48.41,61 52,61L52,53ZM53.5,54.5C53.5,55.328 52.828,56 52,56L52,48C48.41,48 45.5,50.91 45.5,54.5L53.5,54.5ZM52,56C51.172,56 50.5,55.328 50.5,54.5L58.5,54.5C58.5,50.91 55.59,48 52,48L52,56ZM4.5,8.5L14.5,8.5L14.5,0.5L4.5,0.5L4.5,8.5ZM10.578,5.285L17.278,38.76L25.122,37.19L18.422,3.715L10.578,5.285ZM17.277,38.754C17.688,40.826 18.815,42.687 20.461,44.012L25.477,37.78C25.294,37.633 25.169,37.426 25.123,37.196L17.277,38.754ZM20.461,44.012C22.106,45.336 24.165,46.04 26.277,45.999L26.123,38.001C25.889,38.005 25.66,37.927 25.477,37.78L20.461,44.012ZM26.2,46L50.5,46L50.5,38L26.2,38L26.2,46ZM50.423,45.999C52.535,46.04 54.594,45.336 56.239,44.012L51.223,37.78C51.04,37.927 50.811,38.005 50.577,38.001L50.423,45.999ZM56.239,44.012C57.885,42.687 59.012,40.826 59.423,38.754L51.577,37.196C51.531,37.426 51.406,37.633 51.223,37.78L56.239,44.012ZM59.429,38.724L63.429,17.749L55.571,16.251L51.571,37.226L59.429,38.724ZM59.5,13L17,13L17,21L59.5,21L59.5,13Z" fill="#1E1E1E"/>
</svg>
