<svg width="88" height="88" viewBox="0 0 88 88" fill="none" xmlns="http://www.w3.org/2000/svg" xmlns:xlink="http://www.w3.org/1999/xlink">
<path d="M84.524,61.118C85.385,59.083 84.433,56.736 82.398,55.876C80.363,55.015 78.016,55.967 77.156,58.002L84.524,61.118ZM29.6,10.986C31.625,10.103 32.55,7.745 31.666,5.72C30.783,3.695 28.425,2.77 26.4,3.654L29.6,10.986ZM84,44L84,48C86.209,48 88,46.209 88,44L84,44ZM44,4L44,0C42.939,0 41.922,0.421 41.172,1.172C40.421,1.922 40,2.939 40,4L44,4ZM44,44L40,44C40,46.209 41.791,48 44,48L44,44ZM77.156,58.002C74.866,63.418 71.283,68.191 66.723,71.903L71.772,78.108C77.347,73.571 81.725,67.738 84.524,61.118L77.156,58.002ZM66.723,71.903C62.162,75.615 56.761,78.153 50.993,79.295L52.547,87.143C59.597,85.747 66.198,82.644 71.772,78.108L66.723,71.903ZM50.993,79.295C45.224,80.438 39.264,80.15 33.632,78.457L31.329,86.118C38.212,88.187 45.497,88.539 52.547,87.143L50.993,79.295ZM33.632,78.457C28.001,76.763 22.87,73.716 18.688,69.582L13.064,75.271C18.175,80.324 24.446,84.048 31.329,86.118L33.632,78.457ZM18.688,69.582C14.507,65.448 11.401,60.352 9.644,54.74L2.009,57.131C4.157,63.99 7.953,70.218 13.064,75.271L18.688,69.582ZM9.644,54.74C7.886,49.129 7.53,43.172 8.607,37.391L0.742,35.926C-0.574,42.992 -0.139,50.273 2.009,57.131L9.644,54.74ZM8.607,37.391C9.683,31.61 12.16,26.18 15.819,21.577L9.557,16.599C5.084,22.225 2.058,28.861 0.742,35.926L8.607,37.391ZM15.819,21.577C19.479,16.974 24.21,13.338 29.6,10.986L26.4,3.654C19.813,6.528 14.03,10.973 9.557,16.599L15.819,21.577ZM88,44C88,38.222 86.862,32.5 84.651,27.162L77.26,30.223C79.069,34.591 80,39.272 80,44L88,44ZM84.651,27.162C82.44,21.824 79.198,16.973 75.113,12.887L69.456,18.544C72.799,21.887 75.451,25.856 77.26,30.223L84.651,27.162ZM75.113,12.887C71.027,8.802 66.176,5.561 60.838,3.349L57.777,10.74C62.144,12.55 66.113,15.201 69.456,18.544L75.113,12.887ZM60.838,3.349C55.5,1.138 49.778,0 44,0L44,8C48.728,8 53.409,8.931 57.777,10.74L60.838,3.349ZM40,4L40,44L48,44L48,4L40,4ZM44,48L84,48L84,40L44,40L44,48Z" fill="#8E8E93"/>
</svg>
