<svg width="130" height="124" viewBox="0 0 130 124" fill="none" xmlns="http://www.w3.org/2000/svg" xmlns:xlink="http://www.w3.org/1999/xlink">
<path d="M69,38C69,35.791 67.209,34 65,34C62.791,34 61,35.791 61,38L69,38ZM61,84C61,86.209 62.791,88 65,88C67.209,88 69,86.209 69,84L61,84ZM40.667,57C38.457,57 36.667,58.791 36.667,61C36.667,63.209 38.457,65 40.667,65L40.667,57ZM89.333,65C91.542,65 93.333,63.209 93.333,61C93.333,58.791 91.542,57 89.333,57L89.333,65ZM121.833,61C121.833,90.338 96.603,114.5 65,114.5L65,122.5C100.591,122.5 129.833,95.175 129.833,61L121.833,61ZM65,114.5C33.396,114.5 8.167,90.338 8.167,61L0.167,61C0.167,95.175 29.409,122.5 65,122.5L65,114.5ZM8.167,61C8.167,31.662 33.396,7.5 65,7.5L65,-0.5C29.409,-0.5 0.167,26.825 0.167,61L8.167,61ZM65,7.5C96.603,7.5 121.833,31.662 121.833,61L129.833,61C129.833,26.825 100.591,-0.5 65,-0.5L65,7.5ZM61,38L61,84L69,84L69,38L61,38ZM40.667,65L89.333,65L89.333,57L40.667,57L40.667,65Z" fill="#007AFF"/>
</svg>
